<?xml version="1.0" encoding="UTF-8" standalone="no"?>
<!-- Created with Inkscape (http://www.inkscape.org/) -->

<svg
   xmlns:dc="http://purl.org/dc/elements/1.1/"
   xmlns:cc="http://creativecommons.org/ns#"
   xmlns:rdf="http://www.w3.org/1999/02/22-rdf-syntax-ns#"
   xmlns:svg="http://www.w3.org/2000/svg"
   xmlns="http://www.w3.org/2000/svg"
   xmlns:sodipodi="http://sodipodi.sourceforge.net/DTD/sodipodi-0.dtd"
   xmlns:inkscape="http://www.inkscape.org/namespaces/inkscape"
   id="svg2985"
   version="1.1"
   inkscape:version="0.92.3 (2405546, 2018-03-11)"
   width="192"
   height="247"
   sodipodi:docname="cupcake_with_color.svg">
  <metadata
     id="metadata2991">
    <rdf:RDF>
      <cc:Work
         rdf:about="">
        <dc:format>image/svg+xml</dc:format>
        <dc:type
           rdf:resource="http://purl.org/dc/dcmitype/StillImage" />
        <dc:title />
      </cc:Work>
    </rdf:RDF>
  </metadata>
  <defs
     id="defs2989" />
  <sodipodi:namedview
     pagecolor="#ffffff"
     bordercolor="#666666"
     borderopacity="1"
     objecttolerance="10"
     gridtolerance="10"
     guidetolerance="10"
     inkscape:pageopacity="0"
     inkscape:pageshadow="2"
     inkscape:window-width="1920"
     inkscape:window-height="1017"
     id="namedview2987"
     showgrid="false"
     inkscape:zoom="2.8284271"
     inkscape:cx="-1.3053129"
     inkscape:cy="105.6411"
     inkscape:window-x="1912"
     inkscape:window-y="-8"
     inkscape:window-maximized="1"
     inkscape:current-layer="layer2" />
  <g
     inkscape:groupmode="layer"
     id="layer1"
     inkscape:label="Back" />
  <g
     inkscape:groupmode="layer"
     id="layer2"
     inkscape:label="Front">
    <path
       style="opacity:1;fill:#55d0b6;fill-opacity:1;stroke:#55d0b6;stroke-width:1.254;stroke-opacity:1;stroke-miterlimit:4;stroke-dasharray:none"
       d="m 77.36917,93.856971 c 0.114337,-0.271905 1.006323,-2.327353 1.982192,-4.567663 0.975869,-2.240309 1.982314,-4.854107 2.236545,-5.808438 0.387162,-1.453324 0.717535,-1.897157 2.03406,-2.732613 0.864501,-0.548605 1.986821,-0.997464 2.494043,-0.997464 1.11092,0 3.431465,1.435918 5.833631,3.609761 2.690696,2.434948 14.561989,8.220614 19.401879,9.455815 l 2.43131,0.620503 -3.66875,0.221063 c -2.01781,0.121586 -10.25766,0.327342 -18.310773,0.457236 -12.469982,0.201138 -14.611185,0.162836 -14.434137,-0.2582 z m 15.618115,-5.258592 c 1.462797,-0.556155 1.180086,-1.777776 -0.85111,-3.677722 -2.367017,-2.214067 -4.143919,-2.787853 -6.595786,-2.129867 -0.791042,0.212285 -1.545699,1.484792 -1.545699,2.606367 0,0.994173 1.675499,2.790205 2.94613,3.158072 1.522228,0.440708 4.936718,0.465075 6.046465,0.04315 z"
       id="path872"
       inkscape:connector-curvature="0" />
    <g
       id="g2995"
       transform="translate(-275.4033,-19.194044)">
      <path
         style="fill:#020001;stroke-width:0.75091517"
         d="m 314.79448,145.44879 c -0.81829,0.20064 -2.02073,-1.52045 -3.80561,-3.10391 -1.6111,-1.4293 -2.79811,-3.34306 -3.60024,-4.6036 -0.84805,-2.16512 0.49537,-2.73483 1.6241,-1.443 0.50451,0.54907 0.65497,1.7706 1.65208,2.67403 1.18953,1.42063 1.08872,1.20389 2.83345,2.77254 1.10994,0.86399 1.27355,0.87636 1.69378,1.37226 0.38777,0.4576 0.39805,2.07728 -0.39756,2.33168 z"
         id="path3840"
         inkscape:connector-curvature="0"
         sodipodi:nodetypes="csccccsc" />
    </g>
    <g
       transform="matrix(-1.1275806,0,0,0.95850316,478.87201,-106.99642)"
       id="g3880">
      <path
         sodipodi:nodetypes="csssccc"
         inkscape:connector-curvature="0"
         id="path3878"
         d="m 314.77506,145.60413 c -0.41348,-0.18133 -1.88505,-1.63785 -3.43668,-3.53109 -2.77447,-3.3853 -2.86364,-3.48749 -3.83771,-5.83565 -0.26489,-0.63857 0.29104,-2.51512 1.61226,-0.97291 0.18143,0.21178 1.64258,3.29549 1.88336,3.51365 1.04863,1.33117 0,0 2.50197,3.23857 2.53056,3.47553 1.81653,3.52902 1.2768,3.58743 z"
         style="fill:#020001;stroke-width:0.75091517" />
    </g>
    <path
       style="fill:#020001;stroke-width:0.5769636"
       d="m 89.892603,83.326269 c 2.311093,1.392594 6.576107,5.116022 1.527443,5.462534 -1.729384,0.118696 -4.869333,0.162321 -6.566184,-1.739514 -1.328873,-1.48941 -0.334652,-3.813429 0.482454,-4.070538 1.230992,-0.209855 3.363248,-0.533922 4.556287,0.347518 z m -2.55239,1.926757 c -0.817101,0.257109 -1.356666,0.223641 -0.851609,1.136381 1.585402,1.127284 3.855737,1.094712 4.434,1.155658 0.518791,-0.54162 0.613892,-0.266401 -0.03445,-1.174476 -1.48425,-1.038776 -1.410442,-0.615586 -2.557654,-0.865136 z"
       id="path3894"
       inkscape:connector-curvature="0"
       sodipodi:nodetypes="csccccccccc" />
    <path
       style="fill:#020001;stroke-width:0.5769636"
       d="m 159.43658,89.167509 c 2.63536,-0.579062 5.32655,0.397741 1.90058,4.122242 -1.17353,1.275798 -3.4225,3.467446 -5.96236,3.254362 -1.98907,-0.166873 -2.26203,-2.427742 -1.84584,-3.176439 0.74909,-0.999116 4.43536,-4.019218 5.90762,-4.200165 z m -1.296,3.373927 c -0.41618,0.748697 -3.02767,2.084155 -2.03322,2.399189 1.92615,-0.272419 4.32045,-3.011176 4.78208,-3.364729 -0.45859,-1.926005 -1.38024,0.257178 -2.74886,0.96554 z"
       id="path3894-5"
       inkscape:connector-curvature="0"
       sodipodi:nodetypes="csccccccc" />
    <path
       style="opacity:1;fill:#fb1e75;fill-opacity:0;stroke:none;stroke-width:0.35355338;stroke-opacity:1"
       d="m 113.89904,90.07444 c -3.11127,-0.648078 -6.29948,-1.412602 -7.08491,-1.698941 -6.49503,-2.367846 -17.133494,-10.001297 -17.133494,-12.29384 0,-1.335894 0.972094,-2.528638 1.8371,-2.254097 4.424951,1.404423 9.904954,1.182958 13.635694,-0.551066 2.19858,-1.021883 2.80707,-1.671792 2.44606,-2.612558 -0.15472,-0.403207 -0.76308,-0.340603 -3.43567,0.353553 -3.80465,0.988192 -5.633743,1.048859 -8.582841,0.284671 -3.603683,-0.933809 -5.054558,-2.042538 -4.130253,-3.15626 0.80303,-0.967591 6.76013,-3.671277 9.366784,-4.2512 1.62984,-0.362604 3.03326,-0.900525 3.45826,-1.325518 0.70085,-0.700856 0.70171,-0.725417 0.0427,-1.21983 -1.33018,-0.99801 -4.09838,-0.394692 -8.582228,1.87046 -2.261106,1.142268 -4.230426,2.131326 -4.376267,2.197908 -0.145841,0.06658 -0.259807,-0.564498 -0.253258,-1.402405 0.01074,-1.373721 0.399981,-2.055539 3.959969,-6.936456 3.547032,-4.863155 5.334624,-6.802435 17.598514,-19.091883 11.63404,-11.658271 13.99595,-14.20116 15.9893,-17.21443 2.77276,-4.191479 5.22027,-9.114143 5.22027,-10.499512 0,-1.326722 0.8848,-1.2959434 1.58344,0.05508 1.03151,1.994715 1.26838,6.092501 1.16767,20.199874 -0.0888,12.444768 -0.0324,14.178045 0.52831,16.23073 1.36088,4.981811 2.73527,6.751155 9.04158,11.639915 7.91914,6.139041 12.36537,14.363272 10.47901,19.383105 -0.91431,2.433094 -2.86343,5.254514 -5.35944,7.757976 -4.74108,4.75524 -9.119,5.779417 -24.51164,5.734293 -6.80221,-0.01994 -7.59565,-0.0937 -12.9047,-1.199571 z m 13.68949,-60.551446 c 3.50278,-3.419846 5.05673,-5.667108 4.69872,-6.795088 -0.37214,-1.17253 -1.51112,-0.851858 -2.57005,0.723585 -0.5329,0.792829 -1.93244,2.582693 -3.11008,3.977476 -2.56896,3.042654 -3.33891,4.134757 -3.33891,4.735957 0,1.078503 1.364,0.244398 4.32032,-2.64193 z"
       id="path18"
       inkscape:connector-curvature="0" />
    <path
       style="opacity:1;fill:#fb1e75;fill-opacity:1;stroke:#fb1e75;stroke-width:1.15;stroke-opacity:1;stroke-miterlimit:4;stroke-dasharray:none"
       d="m 114.79416,90.307558 c -3.23125,-0.659635 -6.775,-1.4904 -7.875,-1.846145 -3.74901,-1.212445 -10.862687,-5.562493 -14.407804,-8.810451 -3.128335,-2.86611 -3.422446,-3.47411 -2.451193,-5.06723 0.481725,-0.790162 0.580148,-0.83469 1.561565,-0.706452 0.576089,0.07527 1.891185,0.32558 2.922435,0.556235 3.377365,0.755407 8.412467,0.150265 10.993927,-1.321298 1.66007,-0.946322 2.00607,-1.308342 2.00607,-2.098917 0,-0.84372 -0.13286,-0.857085 -2.21785,-0.22307 -0.87607,0.266397 -2.68834,0.6761 -4.02728,0.910445 l -2.434432,0.426085 -2.847717,-0.698175 c -3.801288,-0.93196 -4.436737,-1.26776 -4.830326,-2.552565 -0.139165,-0.454278 0.0094,-0.663505 0.845977,-1.19163 2.79956,-1.767285 5.745385,-3.099883 8.011628,-3.624205 1.30625,-0.302218 2.69795,-0.671953 3.09266,-0.821633 0.90285,-0.342375 1.65996,-1.13878 1.49393,-1.57146 -0.153,-0.398707 -1.40913,-0.865045 -2.3301,-0.865045 -1.18654,0 -4.312045,1.221573 -7.061745,2.760015 -1.474142,0.824773 -3.021017,1.56774 -3.4375,1.651038 l -0.757242,0.151447 v -1.37871 c 0,-1.333987 0.07231,-1.480472 2.229271,-4.51594 5.113828,-7.196642 5.936046,-8.146967 13.339466,-15.41785 3.99019,-3.91875 10.17007,-10.1498 13.73308,-13.846777 5.42978,-5.633949 6.80275,-7.211854 8.48365,-9.75 2.44578,-3.693102 4.69522,-8.134864 4.88871,-9.65327 0.20509,-1.6094651 0.50609,-1.9026195 1.24286,-1.2104596 1.56855,1.4735736 1.99004,6.6045896 1.63232,19.8712166 -0.35838,13.29105 0.005,17.027128 2.06693,21.231905 1.17517,2.39685 2.41445,3.72949 5.83065,6.269933 6.77681,5.039537 11.37644,10.99656 12.45865,16.135295 0.43913,2.085182 0.31797,3.639172 -0.41753,5.35502 -1.24981,2.915695 -5.24346,7.722405 -7.85808,9.457888 -2.06025,1.367515 -5.47486,2.58882 -8.04519,2.877525 -3.12362,0.350852 -12.31539,0.762845 -16.45979,0.737757 -3.14926,-0.01908 -4.08874,-0.141372 -9.375,-1.220522 z m 10.95151,-58.985071 c 1.94753,-1.620753 4.99998,-4.989901 5.85895,-6.466845 0.77003,-1.324009 0.86618,-2.095777 0.31779,-2.550901 -0.72364,-0.600564 -1.52713,-0.07652 -2.57894,1.682 -0.55606,0.929668 -1.82311,2.590306 -2.81568,3.690306 -2.28612,2.533579 -3.23363,3.82652 -3.23363,4.41251 0,0.804035 0.90324,0.521415 2.45151,-0.76707 z"
       id="path828"
       inkscape:connector-curvature="0" />
    <path
       style="opacity:1;fill:#fb1e75;fill-opacity:1;stroke:#fb1e75;stroke-width:1.05;stroke-opacity:1;stroke-miterlimit:4;stroke-dasharray:none"
       d="m 86.805443,61.010497 c -0.264754,-0.435355 -0.550266,-1.199337 -0.634471,-1.697745 -0.389011,-2.302532 1.755243,-10.774345 3.90087,-15.412095 0.565807,-1.222985 1.798849,-4.100882 2.740093,-6.395325 3.1657,-7.716927 3.933803,-8.974365 8.587315,-14.058021 3.76614,-4.114265 15.03647,-14.5653607 17.333,-16.0730759 2.41594,-1.5861108 6.16927,-3.4095108 7.91582,-3.8455753 1.12855,-0.2817667 1.31679,-0.2601988 2.30512,0.2641079 0.77178,0.4094285 1.22933,0.8872299 1.61751,1.6890881 0.84816,1.7520708 0.55981,3.7717923 -0.99577,6.9747202 -1.91601,3.945062 -4.12633,7.093895 -8.40266,11.970471 -11.02434,12.57177 -15.21924,16.838655 -23.439621,23.841903 -4.084047,3.47935 -6.521826,6.587105 -7.776596,9.91384 -0.634087,1.681137 -1.937373,3.619257 -2.433766,3.619257 -0.12951,0 -0.45209,-0.356197 -0.716844,-0.79155 z"
       id="path830"
       inkscape:connector-curvature="0" />
    <path
       style="opacity:1;fill:#fb1e75;fill-opacity:1;stroke:#fb1e75;stroke-width:0.95;stroke-opacity:1;stroke-miterlimit:4;stroke-dasharray:none"
       d="m 43.919163,72.658878 c -2.0625,-0.177635 -5.38125,-0.449164 -7.375,-0.603398 C 28.852665,71.460476 17.528442,69.785784 14.763112,68.834371 9.9351233,67.173299 6.7941017,63.954825 6.802095,60.677047 c 0.00435,-1.783355 0.7076756,-3.183076 1.8786212,-3.738726 1.4692088,-0.697185 3.4399928,-0.727563 10.7384458,-0.165523 3.7125,0.285893 9.225,0.637187 12.25,0.780654 9.370753,0.444429 10.967001,0.645304 19.125001,2.406724 9.55102,2.062192 17.276775,4.337536 20.822307,6.132465 1.16394,0.589245 1.925518,1.780219 1.926758,3.01311 0.0012,1.167638 -0.110218,1.225803 -3.874065,2.022888 -8.564488,1.813736 -16.785718,2.302297 -25.75,1.530239 z"
       id="path832"
       inkscape:connector-curvature="0" />
    <path
       style="opacity:1;fill:#fb1e75;fill-opacity:1;stroke:#f81e74;stroke-width:1.05;stroke-opacity:1;stroke-miterlimit:4;stroke-dasharray:none"
       d="m 39.169163,131.57796 c -1.19293,-0.55245 -4.069173,-2.66795 -5.593148,-4.1138 -2.504785,-2.37638 -4.0591,-4.69069 -6.444165,-9.59507 -2.801246,-5.76017 -3.542258,-7.86718 -3.883628,-11.04275 -0.703281,-6.54224 -4.451299,-15.997675 -8.1215,-20.488775 -2.176162,-2.662897 -4.480572,-5.875441 -5.1363537,-7.160518 -0.2806683,-0.55 -1.7700601,-2.96875 -3.3097598,-5.375 -1.5396997,-2.40625 -2.8836778,-4.518474 -2.9866179,-4.693832 -0.116936,-0.199199 0.1396809,-0.645677 0.6839073,-1.189903 1.0015032,-1.001503 1.1894823,-0.977198 3.4429521,0.445169 6.006678,3.791355 10.863987,5.504917 17.527807,6.183462 1.551278,0.157959 4.451755,0.56888 6.445505,0.913157 3.102528,0.535739 4.687961,0.646203 11.000001,0.766421 7.233777,0.137772 16.313852,-0.169179 20.588275,-0.695985 2.447865,-0.30169 7.060905,-1.308358 9.173272,-2.001813 1.213628,-0.398414 1.60651,-0.43992 1.895315,-0.200232 0.20038,0.166301 0.275185,0.390852 0.166233,0.499003 -0.108953,0.10815 -1.81404,0.82627 -3.789085,1.595821 -4.789535,1.866182 -5.57975,2.300568 -7.820495,4.298975 -2.754233,2.456363 -3.295108,3.176163 -3.318738,4.41662 -0.01728,0.906527 0.05476,1.048688 0.56815,1.121358 1.100013,0.155704 1.736663,-0.204022 4.458845,-2.519382 3.501225,-2.977976 4.165743,-3.471569 6.119625,-4.545558 1.589565,-0.873734 4.213573,-1.893281 4.87274,-1.893281 0.581213,0 0.372518,0.802291 -0.831325,3.19589 -1.481367,2.9454 -4.247807,5.979759 -7.359082,8.071774 -2.809805,1.889309 -3.459343,2.828017 -2.741548,3.962068 0.340613,0.538139 1.992248,-0.183539 5.065928,-2.213542 3.616505,-2.38851 4.365855,-3.221571 6.228332,-6.924097 l 1.59181,-3.164454 0.331928,1.098681 c 0.473085,1.565913 0.26762,4.415164 -0.40617,5.632514 -1.58919,2.871218 -2.358513,4.547949 -3.540358,7.716167 -1.712587,4.591007 -4.59544,11.550132 -5.696007,13.750002 -1.05688,2.11254 -2.227693,3.86546 -5.006358,7.49542 -1.155862,1.50999 -2.384947,3.30999 -2.7313,4 -1.65941,3.30595 -4.09474,5.91691 -7.944987,8.51796 -4.070705,2.74999 -6.57637,3.83382 -10.047888,4.34624 -2.29353,0.33854 -2.266955,0.34015 -3.452112,-0.20871 z m 0.825135,-6.56239 c 0.06907,-1.06779 0.0086,-1.208 -0.75,-1.73822 -1.526678,-1.0671 -4.246096,-3.84194 -4.753433,-4.8503 -0.975945,-1.93975 -1.994483,-2.59612 -2.703288,-1.74207 -0.810452,0.97654 0.970043,3.82333 4.648788,7.43284 1.75401,1.721 2.366818,2.17667 2.857798,2.125 0.554867,-0.0584 0.63343,-0.1961 0.700135,-1.22725 z"
       id="path834"
       inkscape:connector-curvature="0" />
    <path
       style="opacity:1;fill:#fb1e75;fill-opacity:1;stroke:#fb1e75;stroke-width:1.05;stroke-opacity:1;stroke-miterlimit:4;stroke-dasharray:none"
       d="m 81.119397,75.845478 c -0.820892,-0.917637 -1.636434,-1.949681 -1.812315,-2.293431 -0.17588,-0.34375 -0.7094,-1.20105 -1.185599,-1.905111 -0.662892,-0.980088 -0.875953,-1.566021 -0.909068,-2.5 l -0.04325,-1.219889 2.70164,-1.8125 c 2.705624,-1.815172 3.388441,-2.0498 4.835498,-1.66156 0.688007,0.184589 1.19202,1.498446 1.866375,4.865248 0.287393,1.434847 0.667063,3.317084 0.843712,4.18275 l 0.321179,1.573938 -1.999417,1.005287 c -3.273213,1.645739 -2.9205,1.663665 -4.618753,-0.234732 z"
       id="path836"
       inkscape:connector-curvature="0" />
    <path
       style="opacity:1;fill:#fb1e75;fill-opacity:1;stroke:#000000;stroke-width:0.25;stroke-opacity:1"
       d=""
       id="path838"
       inkscape:connector-curvature="0" />
    <path
       style="opacity:1;fill:#fb1e75;fill-opacity:1;stroke:#fb1e75;stroke-width:0.725;stroke-opacity:1;stroke-miterlimit:4;stroke-dasharray:none"
       d="m 89.646069,87.382659 c -1.631281,-0.191016 -3.062473,-0.781721 -3.197503,-1.319725 -0.04419,-0.176072 -0.03103,-0.364586 0.02925,-0.41892 0.241839,-0.217986 0.873707,-0.33914 1.234598,-0.23672 0.20625,0.05853 0.764797,0.163316 1.241215,0.232853 0.920604,0.134367 1.706541,0.535648 2.114524,1.079625 0.219993,0.293322 0.220546,0.318916 0.01188,0.549493 -0.120375,0.133013 -0.308583,0.234449 -0.41824,0.225413 -0.109657,-0.009 -0.566732,-0.05944 -1.015721,-0.112019 z"
       id="path842"
       inkscape:connector-curvature="0" />
    <path
       style="opacity:1;fill:#fb1e75;fill-opacity:1;stroke:#fb1e75;stroke-width:0.525;stroke-opacity:1;stroke-miterlimit:4;stroke-dasharray:none"
       d="m 96.774914,110.40182 c 0,-0.39401 0.349715,-1.25375 0.838237,-2.06073 0.532789,-0.8801 1.490221,-1.95498 1.741368,-1.95498 0.676341,0 -0.700032,2.81157 -1.886211,3.85305 -0.517693,0.45454 -0.693394,0.49576 -0.693394,0.16266 z"
       id="path844"
       inkscape:connector-curvature="0" />
    <path
       style="opacity:1;fill:#fb1e75;fill-opacity:1;stroke:#fb1e75;stroke-width:0.425;stroke-opacity:1;stroke-miterlimit:4;stroke-dasharray:none"
       d="m 116.15344,131.16736 c 0.007,-0.45091 0.5997,-1.3612 1.20984,-1.85892 1.07804,-0.8794 2.07331,-1.1248 2.26231,-0.5578 0.08,0.24015 -1.43214,1.63487 -2.34921,2.16672 -0.89927,0.52152 -1.12814,0.57247 -1.12294,0.25 z"
       id="path846"
       inkscape:connector-curvature="0" />
    <path
       style="opacity:1;fill:#fb1e75;fill-opacity:1;stroke:#fb1e75;stroke-width:0.525;stroke-opacity:1;stroke-miterlimit:4;stroke-dasharray:none"
       d="m 67.39052,138.39984 c -1.497144,-0.56145 -2.491459,-1.03623 -2.418245,-1.15469 0.113753,-0.18406 2.210482,-0.12294 2.910115,0.0848 0.710119,0.21089 1.358328,0.72238 1.417617,1.11863 0.05959,0.39824 -0.774311,0.37694 -1.909487,-0.0488 z"
       id="path848"
       inkscape:connector-curvature="0" />
    <path
       style="opacity:1;fill:#fb1e75;fill-opacity:1;stroke:#fb1e75;stroke-width:0.625;stroke-opacity:1;stroke-miterlimit:4;stroke-dasharray:none"
       d="m 153.77491,125.7788 c 0,-0.15891 1.21143,-0.92493 2,-1.26465 0.86764,-0.37378 3.07327,-0.54284 2.75,-0.21079 -0.36775,0.37775 -1.70049,1.09584 -2.48191,1.33729 -0.80114,0.24753 -2.26809,0.33689 -2.26809,0.13815 z"
       id="path850"
       inkscape:connector-curvature="0" />
    <path
       style="opacity:1;fill:#fb1e75;fill-opacity:1;stroke:#fb1e75;stroke-width:0.425;stroke-opacity:1;stroke-miterlimit:4;stroke-dasharray:none"
       d="m 164.89991,108.77486 c 0,-0.22612 1.10067,-1.59516 1.75447,-2.18227 1.27643,-1.14622 0.82583,-0.0275 -0.55673,1.38223 -0.81937,0.83546 -1.19774,1.08819 -1.19774,0.80004 z"
       id="path852"
       inkscape:connector-curvature="0" />
    <path
       style="opacity:1;fill:#fb1e75;fill-opacity:1;stroke:#fb1e75;stroke-width:0.525;stroke-opacity:1;stroke-miterlimit:4;stroke-dasharray:none"
       d="m 155.9738,94.779522 c -0.0911,-0.147399 0.11753,-0.376301 0.98861,-1.084654 0.4125,-0.33544 0.91875,-0.762124 1.125,-0.948187 0.20625,-0.186062 0.75327,-0.680808 1.2156,-1.099435 0.46233,-0.418627 0.9276,-0.76114 1.03393,-0.76114 0.10633,0 0.25826,0.142492 0.33761,0.316649 0.13186,0.289413 0.0967,0.365591 -0.40893,0.885671 -0.90727,0.93321 -2.37769,2.063153 -3.17821,2.442279 -0.79102,0.374635 -1.00615,0.422701 -1.11361,0.248817 z"
       id="path854"
       inkscape:connector-curvature="0" />
    <path
       style="opacity:1;fill:#623c2f;fill-opacity:1;stroke:#623c2f;stroke-width:0.954;stroke-opacity:1;stroke-miterlimit:4;stroke-dasharray:none"
       d="m 82.749864,239.76156 c -4.307271,-0.89519 -5.9417,-1.58241 -6.591583,-2.77155 -0.238013,-0.43551 -1.665288,-4.68977 -3.171724,-9.4539 -8.044129,-25.43972 -14.028124,-40.11864 -19.327586,-47.41115 -4.3747,-6.01997 -11.383582,-16.95229 -11.383582,-17.75591 0,-0.26026 1.887717,0.26723 7.954952,2.22286 2.916815,0.94016 7.861684,2.22746 10.988597,2.86065 l 5.685295,1.15127 2.052256,4.62901 c 5.771394,13.01781 9.708203,23.12939 13.978651,35.90377 4.39376,13.14324 7.699707,25.1755 8.042491,29.27127 l 0.184937,2.20971 -2.258114,-0.0231 c -1.241962,-0.0127 -4.01153,-0.38751 -6.15459,-0.83291 z"
       id="path856"
       inkscape:connector-curvature="0" />
    <path
       style="opacity:1;fill:#623c2f;fill-opacity:1;stroke:#623c2f;stroke-width:1.154;stroke-opacity:1;stroke-miterlimit:4;stroke-dasharray:none"
       d="m 96.479466,241.42045 c -1.416598,-0.12846 -1.503775,-0.206 -2.01724,-1.79439 -0.295162,-0.91306 -1.422241,-5.31434 -2.504621,-9.7806 -3.639801,-15.01904 -9.337854,-31.73521 -16.273383,-47.74062 -2.719714,-6.27639 -4.771008,-11.51032 -4.771008,-12.17334 0,-0.63061 4.762177,-0.74998 14.59545,-0.36582 7.604154,0.29707 10.532167,0.53231 11.095947,0.89147 1.505873,0.95933 2.821287,6.11847 7.161419,28.08758 4.14579,20.98532 6.17477,32.74772 6.55611,38.00699 0.1269,1.75009 0.31353,3.61951 0.41476,4.15426 l 0.18403,0.97227 -6.48044,-0.0618 c -3.56424,-0.034 -7.146703,-0.12219 -7.961024,-0.19603 z"
       id="path858"
       inkscape:connector-curvature="0" />
    <path
       style="opacity:1;fill:#623c2f;fill-opacity:1;stroke:#623c2f;stroke-width:1.254;stroke-opacity:1;stroke-miterlimit:4;stroke-dasharray:none"
       d="m 114.18728,240.7887 c -0.58322,-0.89011 -0.91905,-2.9812 -2.2419,-13.9597 -0.84788,-7.03664 -2.24764,-14.33293 -6.37578,-33.23401 -4.43376,-20.30041 -5.09629,-23.7376 -4.63092,-24.02521 0.21412,-0.13234 2.22597,-0.43206 4.47078,-0.66605 4.9195,-0.5128 12.98959,-1.87202 18.53676,-3.12208 5.22178,-1.17673 4.99797,-1.17918 5.42176,0.0594 0.23555,0.68843 0.41025,13.98421 0.49779,37.88568 l 0.13487,36.82502 -0.99428,0.20274 c -2.47192,0.50406 -7.29304,0.92377 -10.61118,0.92377 -3.48273,0 -3.64793,-0.0349 -4.2079,-0.88955 z"
       id="path860"
       inkscape:connector-curvature="0" />
    <path
       style="opacity:1;fill:#623c2f;fill-opacity:1;stroke:#623c2f;stroke-width:1.354;stroke-opacity:1;stroke-miterlimit:4;stroke-dasharray:none"
       d="m 133.3376,239.94642 c -0.43317,-0.70088 -0.9011,-9.93083 -1.13105,-22.3098 -0.21605,-11.63058 0.31518,-42.37705 0.88154,-51.02259 l 0.2273,-3.46965 5.12652,-1.71774 c 4.81721,-1.6141 7.22806,-2.54968 16.79379,-6.5172 2.139,-0.88718 4.18015,-1.61451 4.5359,-1.6163 0.82298,-0.004 0.90877,-0.39438 -2.83634,12.90146 -11.02852,39.15321 -13.17552,49.62144 -13.1973,64.34672 l -0.008,5.3033 -1.34672,0.95212 c -2.46873,1.74535 -8.5953,3.87859 -9.04579,3.14968 z"
       id="path862"
       inkscape:connector-curvature="0" />
    <path
       style="opacity:1;fill:#623c2f;fill-opacity:1;stroke:#623c2f;stroke-width:1.054;stroke-opacity:1;stroke-miterlimit:4;stroke-dasharray:none"
       d="m 146.9018,232.43842 c -2.00309,-3.74281 1.16912,-22.93553 7.94212,-48.05204 7.16832,-26.58245 9.27538,-32.78525 11.62439,-34.22013 1.53263,-0.9362 8.78506,-3.19751 11.14431,-3.47479 l 1.89293,-0.22248 -0.24514,1.37753 c -0.7598,4.26964 -2.99926,12.03658 -12.22228,42.38972 -9.87735,32.50655 -11.78033,38.20696 -13.29804,39.83453 -1.06329,1.14026 -4.68216,3.12221 -5.7009,3.12221 -0.40346,0 -0.91528,-0.33955 -1.13739,-0.75455 z"
       id="path864"
       inkscape:connector-curvature="0" />
    <path
       style="opacity:1;fill:#55d0b6;fill-opacity:1;stroke:#55d0b6;stroke-width:0.854;stroke-opacity:1;stroke-miterlimit:4;stroke-dasharray:none"
       d="m 79.323182,163.19745 c -14.878419,-0.61597 -21.473724,-1.48737 -30.330278,-4.00738 -3.014043,-0.85761 -6.630397,-1.84989 -8.036343,-2.20507 -3.502214,-0.88477 -7.375092,-3.84323 -8.77391,-6.70231 -1.049985,-2.14609 -1.322306,-5.73525 -0.545306,-7.18709 0.619827,-1.15816 2.627781,-1.82718 5.466309,-1.82129 3.536749,0.007 6.309433,0.75008 11.937894,3.19791 8.045579,3.49904 14.096109,5.2465 22.75555,6.57204 7.925493,1.21319 31.360112,0.98579 43.523952,-0.42233 9.14728,-1.05891 24.13243,-5.84918 32.31325,-10.3295 7.36378,-4.03286 21.20384,-12.87183 26.69328,-17.0477 3.16383,-2.40675 4.50396,-2.96828 6.44811,-2.70181 5.01201,0.68698 8.57791,5.63602 8.57791,11.90514 0,1.52207 -0.26005,2.51097 -1.10489,4.20165 -1.92787,3.85801 -4.88063,5.50804 -13.56757,7.58169 -3.91723,0.93508 -10.19576,3.19421 -18.6793,6.72117 -14.05929,5.84502 -27.8253,9.44188 -44.07643,11.51653 -6.8103,0.86941 -21.349242,1.19422 -32.602228,0.72835 z"
       id="path866"
       inkscape:connector-curvature="0" />
    <path
       style="opacity:1;fill:#55d0b6;fill-opacity:1;stroke:#55d0b6;stroke-width:0.854;stroke-opacity:1;stroke-miterlimit:4;stroke-dasharray:none"
       d="m 82.93403,147.29239 c -6.692211,-0.47584 -15.683987,-1.89578 -20.442622,-3.22822 -1.423496,-0.39858 -4.207729,-1.41299 -6.187184,-2.25425 -3.867708,-1.64375 -5.646169,-2.1758 -11.78799,-3.52652 -4.554714,-1.00169 -6.401665,-1.69301 -6.716751,-2.51411 -0.354467,-0.92373 0.53719,-1.20649 3.822849,-1.21231 3.195724,-0.006 5.038592,-0.36927 22.222779,-4.38484 4.571309,-1.06822 10.372488,-2.19625 12.891513,-2.50676 6.029988,-0.74326 8.443562,-1.59122 21.979326,-7.72192 6.1957,-2.80619 12.37861,-5.5149 13.73979,-6.01935 1.36118,-0.50445 5.21987,-1.95606 8.57486,-3.22579 7.22008,-2.73253 20.3793,-7.2255 25.15751,-8.58957 3.16725,-0.90418 3.8335,-0.96737 10.10825,-0.95876 5.17154,0.007 7.34667,0.15471 9.45129,0.64144 5.22472,1.2083 8.59797,4.38855 12.30064,11.59689 2.01029,3.91362 1.98721,4.29393 -0.28616,4.7162 -2.17384,0.40379 -5.98499,2.62206 -11.21272,6.52635 -11.44676,8.54892 -23.47353,14.99538 -35.438,18.99511 -5.26038,1.75854 -10.78016,2.69204 -19.36278,3.2746 -7.51002,0.50976 -24.001869,0.73401 -28.8146,0.39181 z m -11.909184,-6.78334 c 3.215719,-1.69262 -0.196371,-5.43964 -5.591709,-6.14058 -2.146602,-0.27888 -3.57949,0.21187 -4.12696,1.41344 -0.86673,1.90226 0.755268,3.47438 4.627492,4.48519 2.783593,0.72662 4.055528,0.78707 5.091177,0.24195 z m 45.264404,-5.7347 c 2.23359,-0.93325 5.88606,-6.33995 5.37363,-7.95449 -0.68384,-2.15456 -5.45267,-0.52596 -7.53304,2.5726 -1.83647,2.73529 -1.96242,4.65707 -0.35596,5.43128 1.06811,0.51476 1.16996,0.51276 2.51537,-0.0494 z m 41.15639,-7.91193 c 5.58845,-2.20387 5.32811,-4.66856 -0.44384,-4.20198 -4.26059,0.3444 -5.48503,1.0814 -5.473,3.29422 0.0132,2.42401 1.49541,2.65141 5.91684,0.90776 z m 8.98054,-16.31044 c 1.83149,-1.1615 3.03815,-2.68423 3.34573,-4.22212 0.17166,-0.85829 0.0509,-1.16283 -0.64063,-1.61596 -2.10424,-1.37875 -6.64774,1.97078 -6.64774,4.9008 0,0.66136 1.24121,1.9559 1.87533,1.9559 0.25361,0 1.1839,-0.45838 2.06731,-1.01862 z"
       id="path868"
       inkscape:connector-curvature="0" />
    <path
       style="opacity:1;fill:#55d0b6;fill-opacity:1;stroke:#55d0b6;stroke-width:1.454;stroke-opacity:1;stroke-miterlimit:4;stroke-dasharray:none"
       d="m 64.666713,125.0401 c -1.19935,-0.11619 -2.287134,-0.31792 -2.417296,-0.4483 -0.322433,-0.32296 3.597952,-7.35937 6.822559,-12.24531 1.450891,-2.19839 3.467746,-5.90642 4.481902,-8.24007 1.014155,-2.33365 2.067905,-4.459278 2.341666,-4.723624 0.554118,-0.535061 7.475204,-1.078787 18.175418,-1.427876 16.846048,-0.549594 26.158378,-1.167641 34.294678,-2.276095 2.72236,-0.370882 6.41267,-0.83539 8.20068,-1.03224 6.00419,-0.661025 15.46258,-4.524332 18.49091,-7.552667 1.42406,-1.424062 3.57796,-5.244469 4.61146,-8.179405 0.35158,-0.998454 0.88154,-1.968249 1.17767,-2.155101 0.95552,-0.602903 2.8865,0.665777 4.39144,2.885243 4.03322,5.94812 4.74967,9.934685 2.55764,14.231418 -2.0856,4.088118 -3.52422,4.61305 -12.64251,4.61305 -4.62724,0 -7.19627,0.159463 -8.93306,0.554488 -3.88584,0.883816 -38.50196,12.584699 -44.72429,15.117629 -3.111267,1.26651 -8.202436,3.40846 -11.313706,4.7599 -13.191768,5.73009 -17.892564,6.85742 -25.515161,6.11896 z m 33.493832,-11.36088 c 1.124686,-0.60191 3.889625,-6.60171 3.945335,-8.56121 0.0551,-1.93697 -2.429464,-2.67362 -4.366187,-1.29456 -1.94865,1.38757 -3.456553,5.41007 -2.980103,7.94977 0.182879,0.97483 0.494592,1.37531 1.365172,1.75393 1.386023,0.60278 1.217194,0.59017 2.035783,0.15207 z M 157.81032,96.174291 c 2.10394,-0.875634 5.38033,-4.391805 5.38033,-5.774085 0,-0.775139 -1.17827,-1.457025 -2.51769,-1.457025 -1.73089,0 -3.11746,0.683641 -5.52565,2.724379 -2.07779,1.760751 -2.42427,3.071465 -1.14905,4.346689 0.84827,0.848267 2.03836,0.898231 3.81206,0.160042 z"
       id="path870"
       inkscape:connector-curvature="0" />
    <a
       id="a6206"
       transform="translate(-0.98304935,-2.8037185)"
       style="stroke:none">
      <path
         sodipodi:nodetypes="scssssssssssccsssssssssssssssscsssscsscsccscsscccsssssscsssscccsccscccssscsscsscssccssccsccssssccscscccscsscccsscccccssccscccccsssscczccsscsssssssssssssssssssssscsscssscsccscssscscssssssssccsccsssssssssssssscccsssccsccscscccsssccssccccsscccscccccscccscccscscccscssscssssssssssssssccssssccssccscssssccccssssssssssccccasscsssssccc"
         inkscape:connector-curvature="0"
         id="path2997-1"
         d="m 100.1536,246.82781 c -4.949992,-0.37424 -12.692632,-1.50735 -17.205862,-2.51803 -7.83089,-1.75362 -8.23446,-1.97876 -8.83167,-4.92678 -0.3442,-1.69905 -3.76682,-12.53918 -7.60582,-24.08918 -6.27417,-18.8764 -8.20928,-23.59479 -11.06263,-26.97401 -2.08043,-2.46386 -12.849062,-20.34181 -14.79401,-23.25435 -1.383758,-2.07216 -5.620425,-5.8437 -7.01988,-7.27164 -1.07705,-1.09897 -4.98012,-7.17475 -4.98012,-10.38285 0,-2.21069 0.82542,-4.04397 2.55044,-5.66454 2.20511,-2.07159 2.46212,-2.94145 1.89817,-6.42431 -0.35876,-2.21557 -1.62913,-4.9283 -2.82307,-6.0283 -3.79273,-3.49433 -8.75316,-14.72085 -9.17308,-20.76064 -0.40321,-5.79952 -1.974477,-8.612478 -2.852302,-10.710241 -1.00715,-1.476134 -3.841002,-5.894873 -4.934198,-7.307216 -0.982653,-1.269529 -4.4337199,-4.82578 -6.9999999,-8.58166 -4.9878,-7.299901 -5.052721,-11.74745 -3.10468,-14.525391 1.11779,-1.593989 0.5669311,-1.48732 1.06849,-3.72592 0.5579493,-2.490287 0.0653,-3.63663 2.38714,-5.75787 2.33632,-2.13444 3.7862499,-2.60677 7.6815099,-2.50235 10.86671,0.29131 27.97798,2.14352 37.30158,4.03771 1.375,0.27935 4.975,0.94602 8,1.48151 3.025,0.53548 7.13627,1.84625 9.13615,2.91283 4.14528,2.21076 9.73889,2.53066 12.05129,0.68923 0.86333,-0.6875 1.83047,-2.99556 2.14919,-5.12903 0.31873,-2.13347 2.42705,-7.660715 4.68516,-12.282772 2.25812,-4.622058 5.79535,-13.67702 6.92475,-15.26312 1.1294,-1.5861 4.395384,-6.666048 5.682192,-8.038854 1.51249,-1.61358 3.36793,-3.126813 5.2557,-5.409535 2.03445,-2.460082 6.19056,-6.128923 8.11556,-7.943786 1.925,-1.8148623 7.625,-5.4050113 9,-6.1917143 3.2604,-1.865431 9.72777,-0.868911 12.45813,1.9196 4.42854,4.5228693 4.95758,7.2152393 5.02812,25.5892123 0.0799,20.815792 2.17747,20.845778 10.0676,28.039229 1.82067,1.65992 4.57304,4.76826 5.94737,6.36631 1.37433,1.59805 2.25711,3.652649 2.69295,4.25 0.98095,1.34446 1.58406,2.46946 2.39519,3.84446 0.3451,1.375001 0.95868,2.500001 1.36351,2.500001 1.44885,0 5.8491,4.55824 7.43343,7.70034 2.01283,3.99191 3.07274,10.2954 1.13408,12.85853 -1.59502,2.10882 -2.92185,4.942967 -1.70038,5.441127 0.80799,0.32953 3.27906,1.26947 5.59703,3.25357 4.52008,4.36859 5.84798,5.50582 7.95651,13.8716 0.003,0.98441 0.95444,2.12315 2.56206,3.03774 3.8414,2.18541 6.99481,6.33589 7.11125,12.13656 0.0852,4.24476 -0.79943,5.68271 -4.23277,8.65062 -2.08878,1.80561 -4.43336,2.80472 -5.11523,3.24409 -0.59652,0.38437 -1.30671,0.58936 -1.03244,1.63817 0.42455,1.62351 -0.97855,7.09842 -6.3218,24.66766 -0.83634,2.75 -2.54177,8.84322 -3.78983,13.54049 -1.24807,4.69727 -3.40855,12.12227 -4.80107,16.5 -2.76672,8.69787 -6.30007,21.28497 -7.25972,25.8618 -1.53141,7.30371 -18.12899,15.87119 -32.99399,17.03114 -15.61155,1.2182 -18.09884,1.27352 -27,0.60056 z m 11.15253,-9.61633 c -0.593,-7.01517 -9.28492,-52.11993 -11.690966,-60.66766 -0.66693,-2.36932 -1.68258,-3.78689 -2.75857,-3.8502 -10.850546,-0.6384 -25.203026,-1.15744 -25.203006,-0.2068 1e-5,0.61878 2.06576,6.50082 4.59056,11.93204 5.25985,11.31472 13.36203,34.44922 15.90497,45.41413 0.95165,4.10346 2.14682,9.14833 2.65593,11.21083 l 1.119825,3.24515 7.914007,0.50485 h 8.10819 z m 15.4579,6.97987 4.38957,-0.60246 v -38.38587 c 0,-33.65485 -0.18487,-38.33021 -1.5,-37.93421 -4.00992,1.20741 -12.3254,2.83446 -20,3.91331 -4.675,0.65719 -8.43079,0.69413 -8.34621,1.22125 0.0846,0.52713 1.96294,9.99045 4.17412,19.89045 5.09894,22.82929 6.9487,32.4679 7.67645,40 1.22652,12.69425 1.14258,12.5 5.40138,12.5 2.09832,0 5.79042,-0.27111 8.20469,-0.60247 z m -34.712392,-4.14753 c -2.43306,-13.17377 -11.75933,-41.14327 -19.58984,-58.75 l -4.44745,-10 -5.279885,-1.09744 c -6.082373,-1.26425 -6.54441,-1.24331 -8.634253,-2.03508 -1.012432,-0.38357 -10.511292,-3.63613 -10.957412,-3.19 -0.50224,0.50223 7.67582,13.40042 11.84422,18.68036 1.89223,2.39681 5.1185,8.69681 7.16949,14 2.05098,5.30319 4.12687,10.42355 4.61308,11.37859 0.938972,2.49108 1.789712,5.25836 2.34649,7.43253 0.694518,1.94152 2.2282,5.53104 3.16409,8.83104 0.93588,3.3 3.039596,9.72721 3.720476,12.07831 1.04998,3.62563 1.526984,3.98817 6.197234,5.07569 2.72565,0.63471 6.21362,1.19721 7.75104,1.25 2.69713,0.0926 2.77099,-0.0357 2.10272,-3.654 z m 50.341032,0.54627 2.50119,-1.94533 0.0603,-9.00468 c 0.0845,-12.60937 4.49702,-30.3396 11.2495,-53.84138 2.99745,-10.43252 5.44991,-19.39719 5.44991,-19.92148 0,-0.5243 -3.2625,0.53543 -7.25,2.35494 -3.9875,1.81951 -10.22242,4.28026 -13.85538,5.46833 l -6.60537,2.16014 -0.71402,24.27728 c -0.68615,23.32981 -0.077,53.21017 1.1836,53.24587 0.33289,0.009 3.93192,-0.97847 7.98024,-2.79369 z m 12.9606,-7.97318 c 0.94086,-1.1679 4.75234,-12.71463 10.33949,-31.32309 0.99082,-3.3 3.79318,-12.525 6.22748,-20.5 7.06414,-23.14289 9.14271,-30.92399 8.44665,-31.62005 -0.35796,-0.35796 -3.77887,0.35497 -7.60203,1.58427 -8.05604,2.59037 -7.16638,1.09962 -13.15066,22.03578 -5.78622,20.24323 -10.12821,37.61638 -11.86626,50.43642 -2.13287,15.73222 1.38339,12.75197 2.72256,12.65699 2.09929,-1.07098 4.29654,-2.54262 4.88277,-3.27032 z m -44.67344,-66.8584 c 19.45273,-2.37668 33.33218,-6.09416 50.47377,-13.51889 6.05,-2.62051 13.4217,-5.11205 16.38155,-5.53677 7.36571,-1.05694 12.49781,-5.17833 12.93648,-10.3888 0.17492,-2.07763 -0.22349,-5.08488 -0.88536,-6.68277 -2.40584,-5.80821 -8.52941,-8.13675 -12.28981,-5.33746 -1.17836,1.29615 -25.74609,18.62603 -37.10342,22.43618 -1.49872,0.7625 -11.41124,4.33396 -20.03944,6.05108 -3.3,0.65675 -13.16137,1.43975 -21.914166,1.74 -22.541376,0.77326 -35.403456,-1.32471 -49.760196,-8.11654 -5.76663,-2.72805 -10.097457,-2.75422 -13.248251,-2.34277 -2.877272,1.00414 -2.175324,1.07464 -2.907019,2.15823 -0.5249,1.68874 -1.23199,6.47234 3.10141,10.07382 1.98532,1.65 3.86135,3.02714 4.16895,3.06032 5.43693,1.32957 7.904526,2.05579 13.147216,3.55506 4.750495,1.79071 14.267424,2.50508 19.912064,2.88462 4.132572,0.31947 27.368922,1.26678 38.026222,-0.0353 z m 16.98284,-17.76389 c 12.94801,-3.44128 29.39288,-11.92864 40.83341,-21.07452 3.51307,-2.80845 7.86258,-5.35553 9.75,-5.70961 3.95121,-0.74125 2.96753,-1.21629 0.40068,-6.20651 -2.44466,-4.75268 -5.57919,-8.63257 -9.89238,-10.0741 -5.35948,-1.79121 -16.79344,-1.52383 -19.73567,-0.67385 -2.94222,0.84999 -2.68249,0.69439 -5.72206,1.65202 -3.06703,0.93018 -6.38354,2.01276 -17.15447,5.82863 -4.82962,2.06036 -10.23993,3.8508 -13.48858,5.06148 -1.925,0.71739 -7.7541,3.28597 -12.953556,5.70795 -15.473806,7.20792 -15.466501,7.24243 -25.641672,8.20623 -5.22539,0.98998 -27.715858,6.62953 -29.812889,6.62749 -1.508914,-0.001 -6.000034,-0.614 -5.837202,0.84518 0.340843,3.05447 11.042465,2.87627 17.622775,6.07106 7.530132,3.65594 13.578106,4.2318 22.872236,5.5359 11.04695,1.55004 40.209248,0.47507 48.759378,-1.79735 z m -61.652442,-5.27391 c -3.61864,-1.06925 -4.86972,-3.25617 -2.8308,-4.94832 2.14283,-1.77839 9.97418,1.05193 9.97418,3.60476 0,2.23584 -2.51976,2.70977 -7.14338,1.34356 z m 4.14338,-1.92689 c -0.33992,-0.55 -1.60398,-0.96837 -2.80902,-0.92971 -2.11237,0.0678 -2.11922,0.10112 -0.19098,0.92971 2.75248,1.18278 3.731,1.18278 3,0 z m 44.166662,-3.66667 c -2.1278,-2.1278 2.55455,-8.33333 6.28788,-8.33333 2.64309,0 2.58614,1.58202 -0.20455,5.68129 -2.11305,3.10388 -4.5633,4.17207 -6.08333,2.65204 z m 6.33333,-5.54249 c 0,-1.20848 -2.80541,0.25969 -3.38568,1.77185 -0.44536,1.16059 -0.19534,1.1926 1.42268,0.18213 1.07965,-0.67425 1.963,-1.55354 1.963,-1.95398 z m 32,-2.82222 c 0,-2.27984 0.99628,-2.82166 5.89119,-3.20384 4.7182,-0.36839 5.04708,1.81635 0.55591,3.69288 -4.92827,2.05916 -6.4471,1.94395 -6.4471,-0.48904 z m 6,-0.96862 c 1.33333,-0.86167 1.33333,-0.96937 0,-0.96937 -0.825,0 -2.175,0.43621 -3,0.96937 -1.33333,0.86167 -1.33333,0.96937 0,0.96937 0.825,0 2.175,-0.43621 3,-0.96937 z m 6.25,-13.71061 c -2.10633,-0.76848 -1.39107,-3.96694 1.27825,-5.71594 4.43041,-2.90292 6.24447,0.46511 2.22175,4.12496 -1.2375,1.12586 -2.8125,1.8418 -3.5,1.59098 z m 2.75,-3.78939 c 0.68469,-0.825 1.01989,-1.5 0.74489,-1.5 -0.275,0 -1.0602,0.675 -1.74489,1.5 -0.68469,0.825 -1.01989,1.5 -0.74489,1.5 0.275,0 1.0602,-0.675 1.74489,-1.5 z M 49.428003,132.94188 c 1.609533,-0.47075 4.857198,-3.19661 5.538961,-3.46845 1.439281,-0.5739 5.111915,-4.06774 6.737875,-7.7233 0.7339,-1.65 3.408769,-4.70487 5.374579,-7.45311 1.9658,-2.74824 3.28361,-5.74668 3.57419,-6.55 0.660194,-1.82513 2.77451,-6.37821 4.00583,-9.953207 1.23131,-3.575 2.80549,-7.175 3.49818,-8 1.64203,-1.95568 1.318909,-5.985023 0.881341,-6.938529 -0.127552,-0.277949 -0.250625,-0.614375 -0.37417,-0.987784 -0.123545,-0.37341 -2.03462,4.505352 -3.727183,6.863688 -1.157456,1.612744 -8.810527,6.640489 -9.100389,5.585235 -1.039395,-2.037993 1.717838,-3.014625 3.471562,-4.353875 2.289449,-1.556355 1.584576,-0.952331 4.929134,-4.669223 0.806286,-0.896045 3.309751,-5.588467 2.990148,-6.422954 -1.94181,0.184728 -4.655012,1.503136 -6.319987,2.457254 -2.531134,1.488698 -7.363272,5.957509 -7.636873,6.168928 -0.347462,0.268494 -1.924507,0.784176 -2.327206,0.563209 -0.4027,-0.220967 -0.317563,-1.8651 0.187898,-2.483692 1.435602,-1.756914 1.419367,-1.603195 3.529334,-3.464762 0.907052,-0.800268 1.397149,-1.559872 4.994138,-2.918352 3.586437,-1.354495 6.532744,-2.563356 6.532744,-2.563356 0.07982,0.07816 -0.829469,-0.829719 -0.867907,-0.835151 -0.307504,-0.04345 -0.645192,0.0051 -1.018021,0.167058 -0.960595,0.417372 -6.561623,1.958097 -10.817193,2.364357 -10.60602,1.01251 -24.08343,0.640321 -27.33138,0.34581 -1.699726,-0.154124 -5.25,-0.99335 -8,-1.23799 -7.63416,-0.67914 -10.52204,-1.50692 -16.45139,-4.715621 -4.8663299,-2.63343 -4.9547089,-3.611484 -6.3052389,-2.260954 -1.35053,1.35052 -0.9329836,1.293207 -0.350671,2.336704 0.5886919,1.054929 5.2341269,7.856293 5.7321599,9.101521 0.571953,1.430049 3.300846,5.009899 3.300846,5.009899 2.046206,2.159955 3.916389,4.698246 4.919164,6.809841 1.55424,3.275747 4.80435,10.339366 5.07319,15.674276 0.18772,3.72511 1.495672,6.38631 3.41174,10.28229 1.481013,3.01137 1.755224,3.82121 2.50794,5.12218 0.308927,0.53394 2.407819,4.1228 6.490719,7.3301 4.420292,3.08922 3.589154,3.17856 8.908582,2.28774 1.604667,-0.25003 3.088035,-1.05728 4.037354,-1.46978 z m 27.725605,-5.63978 c 2.2,-0.3665 11.425,-4.05331 20.499996,-8.19293 9.074996,-4.13961 27.001926,-9.81685 36.615596,-13.01885 16.68705,-5.55791 14.58073,-4.8203 22.93271,-4.54772 7.98217,0.26052 9.52945,-1.2185 10.79851,-3.155337 2.95887,-4.51581 2.97134,-8.2327 0.0451,-13.43836 -1.51512,-2.69533 -2.81356,-4.428914 -3.82517,-5.060684 -1.60258,-1.00082 -2.99485,-1.330102 -3.5093,1.242108 -0.59657,1.62369 -2.12959,5.623158 -4.47365,8.399446 -2.0655,2.446368 -12.34606,7.45117 -19.0838,7.86661 -2.75,0.16956 -7.7,0.7744 -11,1.34409 -3.3,0.56968 -13.875,1.283507 -23.5,1.586267 -9.624992,0.30277 -18.737492,0.67796 -20.249992,0.83378 -1.5125,0.15581 -3.67656,0.36204 -4.80902,0.45829 -1.13246,0.0962 -1.157562,0.59386 -1.44098,1.175 -0.514449,1.05485 -1.092081,2.49617 -1.90116,4.32481 -0.57606,1.82863 -1.82435,3.81401 -2.60138,5.44755 -1.0877,1.16751 -3.58263,5.04267 -5.54428,8.61145 l -3.56664,6.48871 3.80673,0.38186 c 2.0937,0.21003 4.48173,0.27801 5.30673,0.15107 0.825,-0.12694 3.3,-0.53066 5.5,-0.89716 z m 19.749996,-11.17056 c -2.327586,-0.9392 -0.83661,-7.5784 2.1497,-9.57241 1.392746,-0.92996 1.806676,-0.92103 3.372486,0.0727 0.99718,0.63288 0.82494,1.81847 -0.7968,5.48469 -2.070816,4.68142 -2.393766,4.95582 -4.725386,4.01499 z m 3.718186,-6.77885 c -0.0175,-0.58238 -0.692486,-0.18536 -1.499996,0.88226 -0.8075,1.06762 -1.45388,2.41762 -1.43639,3 0.0175,0.58238 0.69249,0.18536 1.5,-0.88226 0.80751,-1.06762 1.453886,-2.41762 1.436386,-3 z M 115.5276,96.345133 c -0.2057,-0.19984 -1.724,-0.60777 -3.374,-0.90651 -3.43323,-0.6216 -17.206772,-7.72297 -17.206772,-7.72297 l -2.10481,-1.96092 c -1.431989,-0.969825 -2.898737,-2.569404 -4.38185,-3.0412 -0.48225,-1.44675 -5.80657,0.95232 -5.80657,2.61637 0,0.66828 -1.07017,3.63354 -2.37816,6.58948 l -2.37816,5.37443 19.002156,-0.29267 c 10.451176,-0.16097 18.833856,-0.45617 18.628156,-0.65601 z m 28.376,-2.95669 c 1.5125,-0.44629 5.04405,-1.708416 6.24272,-2.88707 2.86075,-1.844504 7.28443,-7.41646 8.01958,-10.76356 1.28227,-5.838141 -4.44438,-14.531141 -13.78975,-20.932711 -5.31115,-3.63813 -7.1898,-9.269014 -6.84327,-20.511289 0.47512,-15.41385 0.39063,-20.903896 -0.3655,-23.75 -0.78514,-2.955294 -2.51378,-3.765414 -2.51378,-1.17807 0,1.917702 -4.54647,10.005202 -7.54872,13.42807 -3.15502,3.597033 -20.63864,21.199984 -22.97636,23.133173 -3.59474,2.972693 -9.033421,10.955149 -12.268323,15.505504 -0.02134,0.03002 0.112203,1.71071 0.104103,1.937791 -0.0081,0.22708 -0.127837,1.015209 0.234742,0.95795 2.272585,-0.358895 4.750485,-2.597224 7.468635,-3.60753 2.852973,-1.060418 3.531733,-1.08372 4.350353,-0.934491 0.7043,0.128389 1.7751,0.59094 1.50311,1.058132 -0.34886,0.599257 -0.91166,1.115006 -2.61818,1.443037 -2.77029,0.532515 -5.318971,1.425079 -4.940781,1.250683 0.923222,-0.42573 -6.061458,3.183989 -5.979715,3.540434 0.125378,0.546718 -0.34357,2.042592 3.283496,2.859851 5.12146,1.15398 3.386778,1.331263 7.74333,0.579487 4.11081,-0.70937 5.05397,-1.731497 5.4216,-1.122865 0.52764,1.616724 -1.78793,2.192003 -2.38371,2.603947 -0.79683,0.55563 -2.70109,1.202939 -6.301325,1.496416 -3.916317,0.319243 -7.534753,-1.602187 -8.138883,-0.96951 -0.96388,1.009426 -2.113979,2.231317 -0.280289,4.075977 1.7452,1.75562 3.678735,3.422214 4.341475,3.929904 0.912516,0.699029 6.092742,4.291683 10.820452,6.382513 3.50486,1.550025 13.61945,3.000743 13.83407,3.215353 0.71421,0.71422 20.78678,0.0834 23.58093,-0.7411 z M 88.853787,77.992081 C 88.692203,76.901365 88.37762,74.9807 87.83322,73.367485 87.599489,71.482436 87.294792,70.084428 87.152374,69.57001 c -0.340739,-1.230759 0.143075,0.0673 -0.89255,-2.185546 -1.963754,-0.703037 -2.511973,-0.742965 -4.766914,0.918407 -3.613966,2.662658 -3.748487,1.832292 -3.52973,3.730192 0.180153,1.562984 0.857868,2.251201 1.677991,3.329246 0.494511,0.65003 0.62605,1.708214 1.443337,2.319704 1.331004,0.99585 1.005121,1.564828 2.511618,2.827687 z M 63.129498,75.339033 c 3.28674,-0.362 8.15293,-1.368382 9.39926,-1.696491 1.709581,-0.450065 2.12485,-0.12969 2.12485,-1.72232 0,-1.10461 -0.5625,-2.36252 -1.25,-2.79536 -1.86889,-1.17662 -11.42015,-4.31704 -16.12077,-5.30045 -2.27108,-0.47513 -5.25423,-1.11879 -6.62923,-1.43036 -1.375,-0.31158 -3.75579,-0.83887 -5.29065,-1.17175 -1.53486,-0.33289 -6.93486,-0.76238 -12,-0.95442 -5.06514,-0.19203 -12.24756,-0.65677 -15.96093,-1.03275 -7.6723599,-0.77682 -9.7484199,0.18296 -9.7484199,4.50681 0,3.71291 4.2158999,7.32199 9.9999999,8.56063 5.6455,1.20896 16.44068,2.57194 23.39172,2.953401 4.89045,0.26837 8.959491,0.751685 9.18696,0.78319 0.856489,0.118625 5.52721,0.11162 12.89721,-0.70013 z m 27.5381,-13.295221 c 0.73427,-1.5125 0.605319,-2.311443 1.98601,-4.25 3.151568,-4.424953 3.669633,-4.398057 4.283446,-4.999999 0.46748,-0.601942 2.44433,-1.9125 4.910796,-4.25 2.46647,-2.3375 4.35779,-3.813025 6.39512,-5.866749 6.25353,-6.30386 17.84992,-19.773409 17.84992,-19.773409 0.85389,-1.215859 5.34738,-7.518229 5.91088,-11.093661 0.51719,-3.2816423 -0.56909,-5.2312243 -3.23311,-5.8025583 -2.48837,0.02746 -9.73923,3.9005264 -12.0845,6.2760413 -2.08576,2.112654 -15.84383,14.207756 -19.077166,19.510336 -1.50917,2.475 -3.039463,6.163605 -3.724236,8 -1.435579,3.849873 -3.29767,7.514563 -3.97047,9.145631 -0.443491,1.075153 -3.49822,10.771828 -2.84561,13.372028 0.80981,3.22652 1.94356,3.1422 3.59892,-0.26766 z"
         style="fill:#020001;stroke:none" />
    </a>
  </g>
</svg>
