<svg viewBox="0 0 200 200" preserveAspectRatio="xMidYMid meet" xmlns="http://www.w3.org/2000/svg">
    <g transform="translate(50.703 -96.073)">
        <path fill="#b196d6" stroke-width="1.454" d="M149.297 196.073c0 55.228-44.772 100-100 100s-100-44.772-100-100 44.772-100 100-100 100 44.772 100 100z"></path>
        <path fill="none" stroke="#000000" stroke-width="1.442" stroke-dasharray="2.88469804,1.44234903" d="M138.576 196.073c0 49.307-39.972 89.279-89.279 89.279-49.307 0-89.279-39.972-89.279-89.279 0-49.307 39.972-89.279 89.279-89.279 49.307 0 89.279 39.972 89.279 89.279z"></path>
        <path d="M35.495 173.44c.064-.152.567-1.31 1.116-2.571.55-1.262 1.116-2.734 1.26-3.27.218-.82.404-1.07 1.145-1.54.487-.309 1.119-.561 1.404-.561.626 0 1.932.808 3.285 2.032 1.515 1.371 8.2 4.63 10.925 5.325l1.369.35-2.066.124c-1.136.068-5.776.184-10.31.257-7.022.113-8.228.092-8.128-.145zm8.794-2.96c.824-.314.665-1.001-.479-2.071-1.333-1.247-2.333-1.57-3.714-1.2-.445.12-.87.837-.87 1.468 0 .56.943 1.571 1.659 1.778.857.248 2.78.262 3.404.025z" fill="#55d0b6" stroke="#55d0b6" stroke-width=".706"></path>
        <path d="M14.108 191.682c-.46.113-1.137-.855-2.142-1.747-.907-.806-1.576-1.883-2.027-2.593-.478-1.219.278-1.54.914-.812.284.31.369.996.93 1.505.67.8.613.678 1.595 1.562.625.486.718.493.954.772.219.258.224 1.17-.224 1.313z" fill="#020001" stroke-width=".751"></path>
        <path d="M61.718 138.928c.262-.097 1.197-.884 2.182-1.905 1.762-1.827 1.818-1.882 2.436-3.15.169-.345-.184-1.358-1.023-.525-.115.114-1.043 1.779-1.196 1.896-.666.719 0 0-1.588 1.748-1.606 1.876-1.154 1.905-.81 1.936z" fill="#020001" stroke-width=".751"></path>
        <path d="M42.547 167.511c1.301.784 3.703 2.88.86 3.076-.974.067-2.742.091-3.697-.98-.749-.838-.189-2.147.271-2.292.693-.118 1.894-.3 2.566.196zm-1.437 1.085c-.46.145-.764.126-.48.64.893.635 2.171.616 2.497.65.292-.304.345-.15-.02-.66-.835-.586-.794-.347-1.44-.488z" fill="#020001" stroke-width=".325"></path>
        <path d="M81.706 170.8c1.484-.326 3 .224 1.07 2.321-.66.719-1.927 1.953-3.357 1.833-1.12-.094-1.274-1.367-1.04-1.789.422-.562 2.498-2.263 3.327-2.365zm-.73 1.9c-.234.421-1.705 1.173-1.145 1.35 1.085-.153 2.433-1.695 2.693-1.894-.258-1.084-.777.145-1.548.544z" fill="#020001" stroke-width=".325"></path>
        <path d="M56.064 171.31c-1.751-.364-3.547-.795-3.989-.956-3.657-1.333-9.648-5.631-9.648-6.922 0-.753.548-1.424 1.035-1.27 2.492.791 5.577.667 7.678-.31 1.238-.575 1.58-.941 1.377-1.471-.087-.227-.43-.192-1.934.2-2.143.556-3.173.59-4.833.16-2.03-.526-2.846-1.15-2.326-1.778.452-.545 3.807-2.067 5.274-2.394.918-.204 1.708-.507 1.948-.746.394-.395.395-.408.024-.687-.75-.562-2.308-.222-4.833 1.053-1.273.644-2.382 1.2-2.464 1.238-.082.037-.146-.318-.143-.79.006-.773.226-1.157 2.23-3.906 1.998-2.738 3.004-3.83 9.91-10.75 6.55-6.564 7.88-7.996 9.003-9.693 1.561-2.36 2.94-5.132 2.94-5.912 0-.747.498-.73.891.03.58 1.124.714 3.431.658 11.375-.05 7.008-.019 7.984.297 9.14.766 2.805 1.54 3.8 5.091 6.554 4.46 3.456 6.963 8.087 5.9 10.914-.514 1.37-1.612 2.959-3.017 4.368-2.67 2.678-5.135 3.255-13.802 3.23-3.83-.012-4.277-.054-7.267-.676zm7.709-34.095c1.972-1.925 2.847-3.19 2.646-3.826-.21-.66-.851-.48-1.448.407-.3.447-1.088 1.455-1.75 2.24-1.447 1.713-1.88 2.328-1.88 2.667 0 .607.767.137 2.432-1.488z" fill="#fb1e75" fill-opacity="0" stroke-width=".199"></path>
        <path d="M56.568 171.442c-1.819-.371-3.814-.84-4.434-1.04-2.11-.682-6.116-3.132-8.113-4.96-1.761-1.614-1.927-1.957-1.38-2.854.271-.445.327-.47.88-.398.324.043 1.064.184 1.645.314 1.902.425 4.737.084 6.19-.744.935-.533 1.13-.737 1.13-1.182 0-.475-.075-.483-1.249-.126-.493.15-1.513.38-2.267.513l-1.371.24-1.604-.393c-2.14-.525-2.498-.714-2.72-1.438-.078-.256.006-.373.477-.67 1.576-.996 3.235-1.746 4.511-2.041.736-.17 1.52-.379 1.741-.463.509-.193.935-.641.842-.885-.087-.224-.794-.487-1.312-.487-.669 0-2.428.688-3.977 1.554-.83.464-1.7.883-1.935.93l-.427.085v-.776c0-.751.041-.834 1.256-2.543 2.879-4.052 3.342-4.588 7.51-8.682a485.048 485.048 0 007.734-7.797c3.057-3.172 3.83-4.06 4.777-5.49 1.377-2.08 2.643-4.58 2.752-5.435.116-.907.285-1.072.7-.682.883.83 1.12 3.72.92 11.19-.202 7.483.002 9.587 1.163 11.955.662 1.35 1.36 2.1 3.283 3.53 3.816 2.838 6.406 6.192 7.016 9.086.247 1.174.179 2.049-.235 3.015-.704 1.642-2.953 4.348-4.425 5.326-1.16.77-3.083 1.457-4.53 1.62-1.76.197-6.935.43-9.269.415-1.773-.01-2.302-.08-5.279-.687zm6.167-33.214c1.097-.912 2.816-2.81 3.3-3.64.433-.746.487-1.181.178-1.437-.407-.338-.86-.043-1.452.947-.313.523-1.027 1.458-1.585 2.078-1.288 1.426-1.821 2.154-1.821 2.484 0 .453.508.294 1.38-.432z" fill="#fb1e75" stroke="#fb1e75" stroke-width=".648"></path>
        <path d="M40.808 154.945a3.245 3.245 0 01-.357-.956c-.219-1.296.989-6.067 2.197-8.678.318-.689 1.013-2.31 1.543-3.601 1.782-4.345 2.215-5.053 4.835-7.916 2.12-2.317 8.467-8.201 9.76-9.05 1.36-.894 3.474-1.92 4.457-2.166.636-.158.742-.146 1.298.149.435.23.692.5.911.951.478.987.315 2.124-.56 3.927-1.08 2.222-2.324 3.995-4.732 6.74-6.208 7.08-8.57 9.482-13.199 13.426-2.3 1.959-3.672 3.709-4.378 5.582-.357.947-1.091 2.038-1.37 2.038-.074 0-.255-.2-.405-.446z" fill="#fb1e75" stroke="#fb1e75" stroke-width=".591"></path>
        <path d="M16.66 161.504c-1.161-.1-3.03-.253-4.153-.34-4.33-.334-10.707-1.277-12.264-1.813-2.719-.935-4.488-2.748-4.483-4.593.002-1.005.398-1.793 1.058-2.106.827-.392 1.937-.41 6.046-.093 2.09.161 5.195.359 6.898.44 5.277.25 6.175.363 10.77 1.355 5.377 1.161 9.727 2.442 11.724 3.453.655.332 1.084 1.002 1.085 1.697 0 .657-.062.69-2.182 1.139-4.822 1.021-9.451 1.296-14.5.861z" fill="#fb1e75" stroke="#fb1e75" stroke-width=".535"></path>
        <path d="M13.985 194.68c-.671-.31-2.291-1.502-3.15-2.316-1.41-1.338-2.285-2.64-3.628-5.402-1.577-3.244-1.994-4.43-2.187-6.218-.396-3.684-2.506-9.009-4.573-11.537-1.225-1.5-2.523-3.309-2.892-4.032-.158-.31-.997-1.672-1.864-3.027a347.627 347.627 0 01-1.681-2.643c-.066-.112.078-.364.385-.67.564-.564.67-.55 1.939.25 3.382 2.136 6.117 3.1 9.87 3.482.873.09 2.506.32 3.628.515 1.747.301 2.64.364 6.194.431 4.074.078 9.187-.095 11.593-.392 1.379-.17 3.976-.736 5.166-1.127.683-.224.904-.248 1.067-.113.113.094.155.22.094.281-.062.061-1.022.466-2.134.899-2.697 1.05-3.142 1.295-4.404 2.42-1.55 1.384-1.855 1.79-1.868 2.488-.01.51.03.59.32.631.619.088.977-.115 2.51-1.419 1.972-1.676 2.346-1.954 3.446-2.56.895-.491 2.373-1.065 2.744-1.065.327 0 .21.452-.468 1.8-.834 1.658-2.392 3.366-4.144 4.544-1.582 1.064-1.948 1.593-1.544 2.231.192.303 1.122-.103 2.853-1.246 2.036-1.345 2.458-1.814 3.507-3.899l.896-1.782.187.619c.266.882.15 2.486-.229 3.172-.894 1.616-1.328 2.56-1.993 4.344-.964 2.585-2.588 6.504-3.207 7.743-.596 1.19-1.255 2.176-2.82 4.22-.65.85-1.342 1.864-1.537 2.253-.935 1.861-2.306 3.331-4.474 4.796-2.292 1.548-3.703 2.159-5.658 2.447-1.291.19-1.276.192-1.944-.117zm.465-3.694c.039-.602.005-.68-.422-.98-.86-.6-2.391-2.163-2.677-2.73-.55-1.093-1.123-1.462-1.522-.981-.457.55.546 2.153 2.617 4.185.988.97 1.333 1.226 1.61 1.197.312-.033.356-.11.394-.691z" fill="#fb1e75" stroke="#f81e74" stroke-width=".591"></path>
        <path d="M37.607 163.299c-.462-.517-.922-1.098-1.02-1.292-.1-.193-.4-.676-.668-1.072-.374-.552-.494-.882-.512-1.408l-.025-.687 1.522-1.02c1.523-1.023 1.908-1.155 2.722-.936.388.104.672.843 1.051 2.74.162.807.376 1.867.476 2.355l.18.886-1.125.566c-1.844.927-1.645.937-2.601-.132z" fill="#fb1e75" stroke="#fb1e75" stroke-width=".591"></path>
        <path d="M42.408 169.795c-.919-.107-1.724-.44-1.8-.743-.025-.1-.018-.205.016-.236.136-.123.492-.19.695-.133a7.1 7.1 0 00.7.13c.517.077.96.303 1.19.609.124.165.124.18.006.31-.067.074-.173.131-.235.126-.062-.005-.32-.033-.572-.063z" fill="#fb1e75" stroke="#fb1e75" stroke-width=".408"></path>
        <path d="M46.422 182.757c0-.222.197-.706.472-1.16.3-.496.84-1.101.98-1.101.382 0-.394 1.583-1.061 2.17-.292.255-.39.278-.39.09z" fill="#fb1e75" stroke="#fb1e75" stroke-width=".296"></path>
        <path d="M57.334 194.45c.004-.254.338-.767.681-1.047.607-.495 1.168-.634 1.274-.314.045.135-.806.92-1.323 1.22-.506.293-.635.322-.632.14z" fill="#fb1e75" stroke="#fb1e75" stroke-width=".239"></path>
        <path d="M29.876 198.522c-.843-.316-1.403-.583-1.361-.65.064-.104 1.244-.07 1.638.048.4.118.765.406.798.63.034.224-.436.212-1.075-.028z" fill="#fb1e75" stroke="#fb1e75" stroke-width=".296"></path>
        <path d="M78.518 191.415c0-.09.682-.52 1.126-.712.489-.21 1.73-.305 1.549-.118-.207.212-.958.617-1.398.753-.451.139-1.277.19-1.277.077z" fill="#fb1e75" stroke="#fb1e75" stroke-width=".352"></path>
        <path d="M84.782 181.84c0-.127.62-.898.988-1.228.719-.646.465-.016-.313.778-.462.47-.675.613-.675.45z" fill="#fb1e75" stroke="#fb1e75" stroke-width=".239"></path>
        <path d="M79.756 173.96c-.051-.083.066-.212.557-.61.232-.19.517-.43.633-.535l.685-.619c.26-.235.522-.428.582-.428.06 0 .145.08.19.178.074.163.054.206-.23.499-.511.525-1.34 1.162-1.79 1.375-.445.211-.566.238-.627.14z" fill="#fb1e75" stroke="#fb1e75" stroke-width=".296"></path>
        <path d="M38.525 255.597c-2.426-.504-3.346-.89-3.712-1.56-.134-.246-.937-2.641-1.786-5.324-4.53-14.324-7.899-22.59-10.883-26.696-2.463-3.39-6.41-9.546-6.41-9.998 0-.147 1.063.15 4.48 1.251 1.642.53 4.426 1.255 6.187 1.611l3.201.648 1.156 2.607c3.25 7.33 5.467 13.024 7.871 20.217 2.474 7.4 4.336 14.176 4.529 16.482l.104 1.244-1.272-.013c-.699-.007-2.258-.218-3.465-.469z" fill="#623c2f" stroke="#623c2f" stroke-width=".537"></path>
        <path d="M46.256 256.531c-.798-.072-.847-.116-1.136-1.01-.166-.514-.8-2.992-1.41-5.507-2.05-8.457-5.258-17.87-9.164-26.882-1.531-3.534-2.686-6.482-2.686-6.855 0-.355 2.681-.422 8.218-.206 4.282.167 5.93.3 6.248.502.848.54 1.589 3.445 4.033 15.816 2.334 11.816 3.477 18.44 3.691 21.4.072.986.177 2.039.234 2.34l.104.547-3.65-.034c-2.006-.02-4.024-.07-4.482-.11z" fill="#623c2f" stroke="#623c2f" stroke-width=".65"></path>
        <path d="M56.227 256.176c-.329-.502-.518-1.68-1.263-7.86-.477-3.963-1.265-8.072-3.59-18.714-2.496-11.431-2.87-13.367-2.607-13.529.12-.074 1.253-.243 2.517-.375 2.77-.288 7.314-1.054 10.438-1.758 2.94-.662 2.814-.664 3.053.034.132.387.23 7.874.28 21.333l.076 20.735-.56.114c-1.392.284-4.106.52-5.975.52-1.96 0-2.054-.02-2.37-.5z" fill="#623c2f" stroke="#623c2f" stroke-width=".706"></path>
        <path d="M67.01 255.701c-.244-.394-.507-5.592-.637-12.562-.122-6.549.178-23.862.497-28.73l.128-1.954 2.886-.967c2.713-.909 4.07-1.436 9.456-3.67 1.205-.5 2.354-.909 2.555-.91.463-.002.511-.222-1.598 7.265-6.21 22.046-7.418 27.94-7.43 36.232l-.005 2.987-.759.536c-1.39.983-4.84 2.184-5.093 1.773z" fill="#623c2f" stroke="#623c2f" stroke-width=".762"></path>
        <path d="M74.648 251.474c-1.128-2.108.658-12.915 4.472-27.058 4.036-14.968 5.223-18.46 6.545-19.268.863-.528 4.947-1.8 6.276-1.957l1.065-.125-.138.775c-.427 2.404-1.688 6.778-6.882 23.87-5.562 18.303-6.633 21.513-7.488 22.43-.598.642-2.636 1.758-3.21 1.758-.227 0-.515-.192-.64-.425z" fill="#623c2f" stroke="#623c2f" stroke-width=".593"></path>
        <path d="M36.595 212.485c-8.377-.347-12.091-.837-17.078-2.256a215.768 215.768 0 00-4.525-1.242c-1.972-.498-4.153-2.164-4.94-3.774-.592-1.208-.745-3.23-.308-4.047.35-.652 1.48-1.029 3.078-1.025 1.992.004 3.553.422 6.722 1.8 4.53 1.97 7.938 2.955 12.814 3.7 4.462.684 17.658.556 24.507-.237 5.15-.596 13.589-3.293 18.195-5.816 4.147-2.271 11.94-7.248 15.03-9.6 1.782-1.355 2.537-1.67 3.632-1.52 2.822.386 4.83 3.173 4.83 6.703 0 .857-.147 1.414-.622 2.366-1.086 2.172-2.749 3.101-7.64 4.269-2.206.526-5.741 1.798-10.518 3.784-7.917 3.292-15.668 5.317-24.819 6.485-3.835.49-12.021.673-18.358.41z" fill="#55d0b6" stroke="#55d0b6" stroke-width=".481"></path>
        <path d="M38.629 203.53c-3.769-.269-8.832-1.068-11.511-1.818-.802-.225-2.37-.796-3.484-1.27-2.178-.925-3.18-1.225-6.638-1.986-2.565-.564-3.605-.953-3.782-1.415-.2-.52.302-.68 2.153-.683 1.799-.003 2.837-.208 12.513-2.469 2.574-.601 5.84-1.237 7.259-1.411 3.395-.419 4.754-.896 12.376-4.348 3.489-1.58 6.97-3.106 7.737-3.39.766-.284 2.939-1.101 4.828-1.816 4.066-1.539 11.475-4.069 14.166-4.837 1.783-.509 2.159-.545 5.692-.54 2.912.004 4.137.087 5.322.361 2.942.68 4.841 2.472 6.926 6.53 1.132 2.204 1.119 2.418-.161 2.656-1.224.227-3.37 1.477-6.314 3.675-6.445 4.814-13.218 8.444-19.955 10.696-2.962.99-6.07 1.516-10.902 1.844-4.23.287-13.515.413-16.225.22zm-6.706-3.82c1.81-.953-.11-3.063-3.149-3.458-1.209-.157-2.015.12-2.324.796-.488 1.071.426 1.956 2.606 2.525 1.567.41 2.284.444 2.867.137zm25.487-3.23c1.258-.525 3.315-3.57 3.026-4.478-.385-1.214-3.07-.297-4.242 1.448-1.034 1.54-1.105 2.622-.2 3.058.601.29.659.29 1.416-.027zm23.175-4.454c3.147-1.241 3-2.63-.25-2.367-2.4.194-3.089.61-3.082 1.855.008 1.365.842 1.493 3.332.512zm5.057-9.185c1.031-.654 1.71-1.511 1.884-2.377.096-.483.028-.655-.361-.91-1.185-.776-3.743 1.11-3.743 2.76 0 .372.699 1.1 1.056 1.1.142 0 .666-.257 1.164-.573z" fill="#55d0b6" stroke="#55d0b6" stroke-width=".481"></path>
        <path d="M28.343 191c-.676-.066-1.288-.18-1.362-.253-.181-.182 2.026-4.144 3.842-6.895.817-1.238 1.953-3.326 2.524-4.64.57-1.314 1.164-2.511 1.318-2.66.312-.301 4.21-.607 10.235-.804 9.485-.31 14.729-.657 19.31-1.281 1.533-.21 3.611-.47 4.618-.582 3.38-.372 8.707-2.547 10.412-4.252.802-.802 2.015-2.954 2.597-4.606.198-.562.496-1.108.663-1.214.538-.34 1.625.375 2.473 1.625 2.27 3.35 2.674 5.594 1.44 8.013-1.175 2.302-1.985 2.598-7.12 2.598-2.605 0-4.051.09-5.03.312-2.187.498-21.679 7.086-25.183 8.513a359.827 359.827 0 00-6.37 2.68c-7.428 3.226-10.075 3.861-14.367 3.445zm18.86-6.398c.633-.339 2.19-3.717 2.22-4.82.032-1.091-1.367-1.506-2.458-.73-1.097.782-1.946 3.047-1.678 4.477.103.549.279.774.769.988.78.339.685.332 1.146.085zm33.587-9.856c1.185-.494 3.03-2.473 3.03-3.252 0-.436-.664-.82-1.418-.82-.975 0-1.755.385-3.111 1.534-1.17.991-1.365 1.73-.647 2.447.477.478 1.147.506 2.146.09z" fill="#55d0b6" stroke="#55d0b6" stroke-width=".819"></path>
    </g>
</svg>
